<svg width="84" height="84" viewBox="0 0 84 84" fill="none" xmlns="http://www.w3.org/2000/svg">
<g id="simple-icons:ford">
<path id="Vector" d="M42 28.826C20.552 28.826 3.1675 34.755 3.1675 42.007C3.1675 49.259 20.552 55.1845 42 55.1845C63.4445 55.1845 80.829 49.259 80.829 42.007C80.829 34.7515 63.4445 28.826 42 28.826ZM22.057 50.666C19.761 50.6835 17.7415 49.266 17.507 46.8125C17.3737 45.5341 17.7427 44.2539 18.536 43.2425C19.2185 42.3535 20.3735 41.615 21.35 41.433C21.665 41.3735 22.0955 41.412 22.274 41.622C22.5505 41.9475 22.47 42.301 22.1935 42.441C21.448 42.8225 20.5485 43.4735 20.104 44.366C19.9004 44.7445 19.8039 45.1713 19.8249 45.6005C19.8458 46.0298 19.9835 46.4452 20.223 46.802C21.1435 48.1915 23.7125 48.23 26.0995 46.0145C26.691 45.4685 27.2195 44.9505 27.755 44.3345C28.805 43.1305 29.155 42.6895 30.555 40.7505C30.5725 40.7295 30.576 40.7015 30.569 40.6875C30.5585 40.663 30.5375 40.6525 30.499 40.6525C29.5645 40.677 28.749 40.957 27.9615 41.545C27.734 41.713 27.405 41.6885 27.2615 41.4715C27.1005 41.2265 27.216 40.901 27.4785 40.719C28.749 39.8335 30.1385 39.676 31.5595 39.4345C31.5595 39.4345 31.6575 39.4415 31.738 39.3295C32.3225 38.584 32.76 37.912 33.383 37.156C34.006 36.386 34.818 35.686 35.434 35.154C36.295 34.412 36.848 34.1635 37.408 33.859C37.5585 33.782 37.3905 33.6875 37.345 33.6875C34.209 33.0995 30.9505 32.3365 27.8355 33.4915C25.6795 34.2965 24.731 36.0045 25.186 37.149C25.5115 37.9575 26.5755 38.094 27.5765 37.604C28.447 37.1723 29.1855 36.5147 29.715 35.7C30.0195 35.231 30.66 35.567 30.3135 36.3825C29.4035 38.521 27.664 40.222 25.543 40.2955C23.737 40.3515 22.5715 39.025 22.575 37.387C22.582 34.153 26.18 32.025 29.96 31.71C34.5135 31.332 38.8255 32.5465 43.3475 33.0925C46.809 33.5125 50.1305 33.523 53.6095 32.7215C54.0225 32.634 54.3095 32.8965 54.285 33.3095C54.25 33.9115 53.7845 34.489 52.64 35.1155C51.3345 35.8295 49.9695 36.0465 48.545 36.0605C45.101 36.0885 41.8915 34.7445 38.57 34.0235C38.577 34.167 38.612 34.342 38.4895 34.433C36.652 35.791 34.9895 37.17 33.8765 39.102C33.838 39.1475 33.859 39.1895 33.922 39.186C34.8915 39.1335 35.7595 39.109 36.6625 39.039C36.82 39.025 36.827 38.9865 36.813 38.871C36.7635 38.5131 36.8014 38.1486 36.9233 37.8086C37.0452 37.4685 37.2475 37.163 37.513 36.918C38.115 36.3825 38.8675 36.323 39.368 36.708C39.928 37.149 39.8825 37.9435 39.571 38.5385C39.4323 38.7998 39.2425 39.0305 39.0128 39.2169C38.7831 39.4033 38.5182 39.5416 38.234 39.6235C38.234 39.6235 38.129 39.6445 38.143 39.7425C38.164 39.893 38.843 40.271 38.9025 40.3725C38.962 40.467 38.9305 40.6175 38.829 40.7295C38.7887 40.7787 38.7379 40.8183 38.6804 40.8456C38.6229 40.8728 38.5601 40.8869 38.4965 40.887C38.381 40.887 38.311 40.845 38.1605 40.7645C37.8003 40.5735 37.4796 40.3157 37.2155 40.005C37.1315 39.8965 37.086 39.893 36.869 39.9035C35.8925 39.963 34.37 40.11 33.3375 40.2395C33.089 40.2675 33.0505 40.3165 33.0015 40.404C31.3565 43.1165 29.5995 46.039 27.671 47.999C25.599 50.099 23.8805 50.652 22.057 50.666ZM66.675 37.485C66.3565 38.038 60.2035 47.404 59.815 48.37C59.6925 48.678 59.675 48.9125 59.801 49.084C60.123 49.518 60.8405 49.2625 61.2885 48.951C62.622 48.034 63.546 46.921 64.568 45.948C64.6275 45.9025 64.729 45.885 64.7955 45.948C64.946 46.088 65.1665 46.2665 65.3205 46.4275C65.3342 46.4401 65.3453 46.4552 65.353 46.4721C65.3608 46.489 65.3652 46.5072 65.3658 46.5258C65.3665 46.5444 65.3634 46.5629 65.3568 46.5802C65.3503 46.5976 65.3403 46.6135 65.3275 46.627C64.3925 47.8022 63.3315 48.8714 62.1635 49.8155C60.5185 51.0895 58.877 51.415 58.0615 50.5995C57.7739 50.2994 57.6005 49.9081 57.5715 49.4935C57.5645 49.294 57.463 49.2835 57.3685 49.3745C56.3955 50.337 54.7085 51.401 53.1755 50.6415C51.8945 50.0115 51.597 48.4785 51.835 47.1905C51.8385 47.1625 51.814 46.9805 51.6565 47.0855C51.3334 47.3205 50.9802 47.5112 50.6065 47.6525C50.2047 47.836 49.7672 47.928 49.3255 47.922C49.0079 47.9256 48.6949 47.8457 48.4179 47.6903C48.1408 47.5349 47.9095 47.3094 47.747 47.0365C47.5404 46.6642 47.4264 46.2476 47.4145 45.822C47.411 45.7835 47.355 45.71 47.299 45.8045C46.249 47.404 45.2725 48.951 44.2365 50.575C44.1805 50.652 44.1315 50.701 44.0265 50.7045L41.972 50.708C41.846 50.708 41.7865 50.61 41.853 50.4875C42.217 49.7875 44.212 46.8825 45.563 44.4115C45.9375 43.7325 45.8605 43.3825 45.6295 43.232C45.339 43.043 44.7615 43.3265 44.275 43.6975C42.9485 44.702 41.8355 46.27 41.2685 46.97C40.936 47.3795 40.621 47.9885 39.753 48.93C38.3845 50.4175 36.568 51.2715 34.825 50.68C34.3646 50.524 33.9495 50.2573 33.6163 49.9033C33.2831 49.5494 33.0419 49.119 32.914 48.65C32.8615 48.468 32.76 48.419 32.6585 48.538C32.3785 48.888 31.801 49.4095 31.318 49.735C31.2655 49.7735 31.136 49.8505 31.024 49.7945C30.8133 49.5898 30.634 49.3551 30.492 49.098C30.4709 49.0513 30.4649 48.9992 30.475 48.949C30.485 48.8988 30.5106 48.853 30.548 48.818C31.2375 48.2125 31.6155 47.8695 31.9165 47.488C32.1405 47.208 32.312 46.893 32.5115 46.3855C32.9315 45.3285 33.887 43.3545 35.7945 42.3325C36.4992 41.9335 37.2738 41.6733 38.0765 41.566C38.4265 41.531 38.717 41.573 38.822 41.846C38.8605 41.9615 38.9585 42.2135 39.018 42.399C39.0565 42.511 39.0285 42.5985 38.8955 42.6475C37.7755 43.0745 36.645 43.736 35.868 44.7825C34.9825 45.9655 34.7445 47.3935 35.336 48.2125C35.7665 48.8075 36.463 48.9125 37.135 48.699C38.15 48.377 39.018 47.4285 39.466 46.3785C39.949 45.227 40.026 43.869 39.669 42.672C39.613 42.4655 39.6655 42.308 39.7985 42.196C40.068 41.9755 40.4425 41.804 40.551 41.748C40.6579 41.6908 40.7821 41.6753 40.8998 41.7044C41.0174 41.7335 41.1201 41.8051 41.188 41.9055C41.559 42.455 41.7585 43.2285 41.783 44.03C41.804 44.2015 41.874 44.205 41.958 44.1175C42.623 43.4105 43.239 42.6545 43.946 42.0875C44.5935 41.573 45.423 41.153 46.1965 41.1705C47.1975 41.1915 47.6945 41.8705 47.663 43.0815C47.6595 43.2355 47.768 43.2215 47.8415 43.12C48.0735 42.7715 48.3567 42.46 48.6815 42.196C49.3745 41.6255 50.0815 41.37 50.82 41.419C51.73 41.489 52.458 42.3185 52.3075 43.2635C52.2712 43.5624 52.1627 43.848 51.9913 44.0955C51.82 44.3431 51.5909 44.5452 51.324 44.6845C51.0996 44.804 50.8443 44.8533 50.5915 44.8258C50.3387 44.7984 50.1 44.6955 49.9065 44.5305C49.7565 44.3887 49.6465 44.2098 49.5875 44.012C49.5285 43.8142 49.5227 43.6043 49.5705 43.4035C49.588 43.316 49.476 43.2355 49.3815 43.3335C48.4925 44.2575 48.426 45.4545 49.007 45.9935C49.6475 46.5885 50.61 46.1895 51.31 45.731C52.591 44.8945 53.585 43.7605 54.7365 42.8855C55.4995 42.3045 56.371 41.7865 57.3475 41.657C57.8839 41.575 58.4325 41.6378 58.9365 41.839C59.6365 42.1225 60.0775 42.714 60.1335 43.225C60.1475 43.3755 60.2595 43.393 60.354 43.26C60.907 42.399 63.8715 37.9505 64.1165 37.485C64.1865 37.3415 64.2705 37.3205 64.428 37.3205H66.549C66.6715 37.3205 66.7275 37.3905 66.675 37.485ZM58.555 45.199C58.5333 45.2425 58.5295 45.2928 58.5445 45.339C58.555 45.409 58.6495 45.479 58.7405 45.514C58.7755 45.5245 58.793 45.549 58.7545 45.626C58.492 46.186 58.254 46.508 57.925 46.9945C57.6343 47.4244 57.2803 47.8079 56.875 48.132C56.252 48.6465 55.391 49.2065 54.677 48.832C54.362 48.6675 54.222 48.223 54.2325 47.866C54.2465 46.858 54.6945 45.822 55.524 44.8035C56.532 43.561 57.6485 42.917 58.38 43.2705C59.136 43.631 58.898 44.513 58.555 45.199ZM37.7335 38.6155C37.7072 38.3919 37.7355 38.1652 37.8159 37.9549C37.8964 37.7446 38.0266 37.5569 38.1955 37.408C38.395 37.233 38.661 37.191 38.8255 37.331C39.0075 37.4885 38.92 37.8805 38.7345 38.15C38.5331 38.4535 38.2284 38.6736 37.877 38.7695C37.814 38.7835 37.758 38.7555 37.7335 38.6155ZM42 26.25C18.69 26.25 0 33.2395 0 42C0 50.708 18.8405 57.75 42 57.75C65.1595 57.75 84 50.68 84 42C84 33.32 65.1595 26.25 42 26.25ZM42 56.378C19.7715 56.378 1.75 49.945 1.75 42.007C1.75 34.0655 19.775 27.6325 42 27.6325C64.225 27.6325 82.243 34.0655 82.243 42.007C82.243 49.945 64.225 56.378 42 56.378Z" fill="#757575"/>
</g>
</svg>
